<svg width="520" height="120" viewBox="0 0 520 120" fill="none" xmlns="http://www.w3.org/2000/svg">
  <defs>
    <linearGradient id="mw1" x1="8" y1="8" x2="108" y2="108" gradientUnits="userSpaceOnUse">
      <stop stop-color="#37D7B0"/>
      <stop offset="1" stop-color="#0CA784"/>
    </linearGradient>
    <linearGradient id="mw2" x1="24" y1="30" x2="84" y2="88" gradientUnits="userSpaceOnUse">
      <stop stop-color="#DBFBEF"/>
      <stop offset="1" stop-color="#B8F0D9"/>
    </linearGradient>
  </defs>
  <g>
    <rect x="6" y="8" width="104" height="104" rx="24" fill="url(#mw1)"/>
    <rect x="24" y="26" width="68" height="58" rx="10" fill="#19B68F" stroke="#0E8D70" stroke-width="2"/>
    <rect x="24" y="26" width="68" height="14" rx="8" fill="#13A07F"/>
    <rect x="38" y="20" width="7" height="14" rx="3.5" fill="#0A5D4A"/>
    <rect x="71" y="20" width="7" height="14" rx="3.5" fill="#0A5D4A"/>
    <rect x="31" y="45" width="11" height="9" rx="2" fill="url(#mw2)"/>
    <rect x="46" y="45" width="11" height="9" rx="2" fill="url(#mw2)"/>
    <rect x="61" y="45" width="11" height="9" rx="2" fill="url(#mw2)"/>
    <rect x="31" y="58" width="11" height="9" rx="2" fill="url(#mw2)"/>
    <rect x="46" y="58" width="11" height="9" rx="2" fill="url(#mw2)"/>
    <path d="M60 65L72 54L76 58L60 74L51 66L55 62L60 65Z" fill="#13A07F"/>
    <circle cx="20" cy="72" r="7" fill="#FF9B2A"/>
    <circle cx="89" cy="80" r="9" fill="#FF9B2A"/>
  </g>
  <text x="130" y="76" fill="#0F6D59" font-size="56" font-family="Manrope, Arial, sans-serif" font-weight="800" letter-spacing="0.5">Meal Planner</text>
</svg>
